<svg xmlns="http://www.w3.org/2000/svg" width="520" height="360" viewBox="0 0 520 360" fill="none">
<desc>首页工作台缩略图。展示问候语、项目搜索、新建论文按钮、项目进度卡、最近编辑和待办事项。</desc>
<rect x="0" y="0" width="520" height="360" rx="8" fill="#FFFFFF" stroke="#D7E3F5" stroke-width="1"/><circle cx="18" cy="18" r="10" fill="#2563EB"/><text x="18" y="22" fill="#fff" font-family="Inter, PingFang SC, Microsoft YaHei, Arial, sans-serif" font-size="10" font-weight="700" text-anchor="middle">1</text><text x="35" y="23" fill="#1E293B" font-family="Inter, PingFang SC, Microsoft YaHei, Arial, sans-serif" font-size="13" font-weight="700" text-anchor="start">工作台 / 首页</text><text x="24" y="58" fill="#1E293B" font-family="Inter, PingFang SC, Microsoft YaHei, Arial, sans-serif" font-size="18" font-weight="700" text-anchor="start">晚上好，张同学</text><rect x="24" y="76" width="250" height="12" rx="3" fill="#E6EEF9"/><rect x="24" y="110" width="140" height="76" rx="8" fill="#fff" stroke="#E6EEF9" stroke-width="1"/><text x="40" y="138" fill="#1E293B" font-family="Inter, PingFang SC, Microsoft YaHei, Arial, sans-serif" font-size="11" font-weight="600" text-anchor="start">大纲完成度</text><rect x="40" y="160" width="92" height="6" rx="3" fill="#EEF5FF"/><rect x="40" y="160" width="50" height="6" rx="3" fill="#2563EB"/><rect x="182" y="110" width="140" height="76" rx="8" fill="#fff" stroke="#E6EEF9" stroke-width="1"/><text x="198" y="138" fill="#1E293B" font-family="Inter, PingFang SC, Microsoft YaHei, Arial, sans-serif" font-size="11" font-weight="600" text-anchor="start">文献整理进度</text><rect x="198" y="160" width="92" height="6" rx="3" fill="#EEF5FF"/><rect x="198" y="160" width="72" height="6" rx="3" fill="#2563EB"/><rect x="340" y="110" width="140" height="76" rx="8" fill="#fff" stroke="#E6EEF9" stroke-width="1"/><text x="356" y="138" fill="#1E293B" font-family="Inter, PingFang SC, Microsoft YaHei, Arial, sans-serif" font-size="11" font-weight="600" text-anchor="start">基于深度学习的摘要生成</text><rect x="356" y="160" width="92" height="6" rx="3" fill="#EEF5FF"/><rect x="356" y="160" width="94" height="6" rx="3" fill="#2563EB"/><rect x="24" y="208" width="220" height="110" rx="8" fill="#fff" stroke="#E6EEF9" stroke-width="1"/><text x="42" y="236" fill="#1E293B" font-family="Inter, PingFang SC, Microsoft YaHei, Arial, sans-serif" font-size="13" font-weight="700" text-anchor="start">最近编辑</text><text x="44" y="265" fill="#64748B" font-family="Inter, PingFang SC, Microsoft YaHei, Arial, sans-serif" font-size="10" font-weight="400" text-anchor="start">论文初稿.md</text><text x="44" y="287" fill="#64748B" font-family="Inter, PingFang SC, Microsoft YaHei, Arial, sans-serif" font-size="10" font-weight="400" text-anchor="start">文献综述.md</text><text x="44" y="309" fill="#64748B" font-family="Inter, PingFang SC, Microsoft YaHei, Arial, sans-serif" font-size="10" font-weight="400" text-anchor="start">rebuttal草案.md</text><rect x="270" y="208" width="220" height="110" rx="8" fill="#fff" stroke="#E6EEF9" stroke-width="1"/><text x="288" y="236" fill="#1E293B" font-family="Inter, PingFang SC, Microsoft YaHei, Arial, sans-serif" font-size="13" font-weight="700" text-anchor="start">待办事项</text><circle cx="292" cy="262" r="5" stroke="#D7E3F5"/><text x="306" y="266" fill="#64748B" font-family="Inter, PingFang SC, Microsoft YaHei, Arial, sans-serif" font-size="10" font-weight="400" text-anchor="start">补充研究背景</text><circle cx="292" cy="284" r="5" stroke="#D7E3F5"/><text x="306" y="288" fill="#64748B" font-family="Inter, PingFang SC, Microsoft YaHei, Arial, sans-serif" font-size="10" font-weight="400" text-anchor="start">检查引用一致性</text><circle cx="292" cy="306" r="5" stroke="#D7E3F5"/><text x="306" y="310" fill="#64748B" font-family="Inter, PingFang SC, Microsoft YaHei, Arial, sans-serif" font-size="10" font-weight="400" text-anchor="start">提交Conference模板</text></svg>
